<?xml version="1.0" encoding="utf-8"?>
<!-- Generator: Adobe Illustrator 21.1.0, SVG Export Plug-In . SVG Version: 6.00 Build 0)  -->
<svg version="1.1" id="Layer_1" xmlns="http://www.w3.org/2000/svg" xmlns:xlink="http://www.w3.org/1999/xlink" x="0px" y="0px"
	 viewBox="0 0 1920 225" style="enable-background:new 0 0 1920 225;" xml:space="preserve">
<style type="text/css">
	.st0{opacity:0.5;fill:#71BDC1;}
	.st1{fill:#2C5070;}
	.st2{opacity:0.5;clip-path:url(#SVGID_2_);fill:#71BDC1;}
	.st3{clip-path:url(#SVGID_2_);fill:#2C5070;}
</style>
<g>
	<path class="st0" d="M562,105v-0.2c44.8-19.8,90.5-35.2,137.8-49.8C712,51,724.2,49,736.4,44.9c1.7-0.4,3.4-0.9,5.1-1.3
		c-19.2-4.6-38.1-8.9-57.6-12c-10.2-1-20.3-4.1-30.5-5.1c-19.3-2-36.6-5.1-55.9-7.1c-12.2-1-24.4-2-36.6-3.1
		c-130.2-9.2-258.3,3.1-386.4,36.6C162.2,57,150,59,137.8,63.1C90.5,77.6,44.8,93,0,112.8v88.8C192.4,214.7,385.7,181.9,562,105z"/>
	<path class="st0" d="M1741.6,187.4c10.1,2.4,20.4,4.8,31.1,7c29.5,6.1,56.9,10.2,86.4,14.2c12.2,1,23.4,3.1,35.6,4.1
		c8.4,0.7,16.9,1.4,25.3,2V126C1862.2,151.2,1802.5,171.7,1741.6,187.4z"/>
	<path class="st1" d="M0-1v113.8C44.8,93,90.5,77.6,137.8,63.1C150,59,162.2,57,174.4,52.9C302.6,19.3,430.7,7.1,560.9,16.3
		c12.2,1,24.4,2,36.6,3.1c19.3,2,36.6,5.1,55.9,7.1c10.2,1,20.3,4.1,30.5,5.1c19.5,3.1,38.4,7.4,57.6,12c5.8,1.4,11.7,2.8,17.6,4.2
		c12.2,3.1,23.4,6.1,34.6,9.2c19.3,6.1,38.6,12.2,58,18.3c21.4,7.1,40.7,15.3,62,23.4c17.3,7.1,34.6,14.2,50.8,23.4
		c23.4,11.2,46.8,20.3,70.2,29.5c11.2,4.1,22.4,8.1,33.6,12.2c19.3,6.1,38.6,12.2,58,18.3c28.5,7.1,54.9,14.2,84.4,20.3
		s56.9,10.2,86.4,14.2c12.2,1,23.4,3.1,35.6,4.1c137.6,12.2,276.1,0.9,408.9-33.3c60.9-15.7,120.6-36.2,178.4-61.4V-1H0z"/>
</g>
</svg>
