<?xml version="1.0" encoding="utf-8"?>
<!-- Generator: Adobe Illustrator 21.1.0, SVG Export Plug-In . SVG Version: 6.00 Build 0)  -->
<svg version="1.1" id="Layer_1" xmlns="http://www.w3.org/2000/svg" xmlns:xlink="http://www.w3.org/1999/xlink" x="0px" y="0px"
	 viewBox="0 0 1920 463.1" style="enable-background:new 0 0 1920 463.1;" xml:space="preserve">
<style type="text/css">
	.st0{fill:none;}
	.st1{fill:#2C5070;}
	.st2{opacity:0.5;fill:#71BDC1;}
</style>
<path class="st0" d="M50,22.5c19.3,2,36.6,5.1,55.9,7.1c10.2,1,20.3,4.1,30.5,5.1c25.4,4.1,49.8,10.2,75.3,16.3
	c12.2,3.1,23.4,6.1,34.6,9.2c19.3,6.1,38.6,12.2,58,18.3c21.4,7.1,40.7,15.3,62,23.4c17.3,7.1,34.6,14.2,50.8,23.4
	c23.4,11.2,46.8,20.3,70.2,29.5c11.2,4.1,22.4,8.1,33.6,12.2c19.3,6.1,38.6,12.2,58,18.3c28.5,7.1,54.9,14.2,84.4,20.3
	s56.9,10.2,86.4,14.2c12.2,1,23.4,3.1,35.6,4.1c200.7,17.8,403.3-14.4,587.3-94.7V116c44.8-19.8,90.5-35.2,137.8-49.8
	c12.2-4.1,24.4-6.1,36.6-10.2c123.8-32.4,247.5-44.9,373.1-37.5v-154.9H0V18.5c4.4,0.3,8.9,0.5,13.4,0.9
	C25.6,20.4,37.8,21.4,50,22.5z"/>
<path class="st1" d="M587.8,223.8c12.2-1,23.4-3.1,35.6-4.1c29.5-4.1,56.9-8.1,86.4-14.2s55.9-13.2,84.4-20.3
	c19.3-6.1,38.6-12.2,58-18.3c11.2-4.1,22.4-8.1,33.6-12.2c23.4-9.2,46.8-18.3,70.2-29.5c16.3-9.2,33.6-16.3,50.8-23.4
	c21.4-8.1,40.7-16.3,62-23.4c19.3-6.1,38.6-12.2,58-18.3c11.2-3.1,22.4-6.1,34.6-9.2c25.4-6.1,49.8-12.2,75.3-16.3
	c10.2-1,20.3-4.1,30.5-5.1c19.3-2,36.6-5.1,55.9-7.1c12.2-1,24.4-2,36.6-3.1c130.2-9.2,258.3,3.1,386.4,36.6
	c12.2,4.1,24.4,6.1,36.6,10.2c47.3,14.6,93,30,137.8,49.8v347.2H0.5l0-334C184.5,209.4,387.1,241.6,587.8,223.8z"/>
<path class="st2" d="M587.8,223.8c12.2-1,23.4-3.1,35.6-4.1c21.6-3,42.1-6,63.1-9.7c-7.7-1.4-15.4-2.9-23.3-4.5
	c-29.5-6.1-55.9-13.2-84.4-20.3c-19.3-6.1-38.6-12.2-58-18.3c-11.2-4.1-22.4-8.1-33.6-12.2c-23.4-9.2-46.8-18.3-70.2-29.5
	c-16.3-9.2-33.6-16.3-50.8-23.4c-21.4-8.1-40.7-16.3-62-23.4c-19.3-6.1-38.6-12.2-58-18.3C235,57,223.9,54,211.7,50.9
	c-25.4-6.1-49.8-12.2-75.3-16.3c-10.2-1-20.3-4.1-30.5-5.1c-19.3-2-36.6-5.1-55.9-7.1c-12.2-1-24.4-2-36.6-3.1
	C8.9,19.1,4.4,18.8,0,18.5v444.6h0.5v-334C184.5,209.4,387.1,241.6,587.8,223.8z"/>
<path class="st2" d="M1746.1,56c12.2,4.1,24.4,6.1,36.6,10.2c47.1,14.5,92.7,29.8,137.3,49.6V18.5c-91.9-5.4-182.8-0.2-273.5,15.7
	C1679.7,40.1,1712.9,47.3,1746.1,56z"/>
</svg>
